<svg width="41" height="41" viewBox="0 0 41 41" fill="none" xmlns="http://www.w3.org/2000/svg">
<path d="M18.4929 2.00096C19.7341 1.28095 21.2659 1.28095 22.5071 2.00096L29.15 5.85443L35.8087 9.68062C37.0528 10.3955 37.8187 11.7221 37.8158 13.157L37.8 20.8367L37.8158 28.5163C37.8187 29.9512 37.0528 31.2778 35.8087 31.9927L29.15 35.8189L22.5071 39.6724C21.2659 40.3924 19.7341 40.3924 18.4929 39.6724L11.85 35.8189L5.19135 31.9927C3.9472 31.2778 3.18131 29.9512 3.18425 28.5163L3.2 20.8367L3.18425 13.157C3.18131 11.7221 3.9472 10.3955 5.19135 9.68062L11.85 5.85443L18.4929 2.00096Z" fill="url(#paint0_linear_26_3057)"/>
<g clip-path="url(#clip0_26_3057)">
<path d="M20.5 15.8367L23.8333 20.8367L28 17.5033L26.3333 25.8367H14.6667L13 17.5033L17.1667 20.8367L20.5 15.8367Z" fill="white" stroke="white" stroke-width="1.5" stroke-linecap="round" stroke-linejoin="round"/>
</g>
<defs>
<linearGradient id="paint0_linear_26_3057" x1="0.5" y1="0.83667" x2="41.3582" y2="1.73342" gradientUnits="userSpaceOnUse">
<stop stop-color="#8AD4EC"/>
<stop offset="0.217372" stop-color="#EF96FF"/>
<stop offset="0.540308" stop-color="#FF56A9"/>
<stop offset="0.852826" stop-color="#FFAA6C"/>
</linearGradient>
<clipPath id="clip0_26_3057">
<rect width="20" height="20" fill="white" transform="translate(10.5 10.8367)"/>
</clipPath>
</defs>
</svg>
