<svg width="27" height="22" viewBox="0 0 27 22" fill="none" xmlns="http://www.w3.org/2000/svg">
<path d="M2.42308 4.11538C3.20902 4.11538 3.84615 3.47824 3.84615 2.6923C3.84615 1.90636 3.20902 1.26923 2.42308 1.26923C1.63713 1.26923 1 1.90636 1 2.6923C1 3.47824 1.63713 4.11538 2.42308 4.11538Z" fill="#D9D9D9" stroke="white" stroke-linecap="round" stroke-linejoin="round"/>
<path d="M8.88452 2.19232C8.60838 2.19232 8.38452 2.41618 8.38452 2.69232C8.38452 2.96846 8.60838 3.19232 8.88452 3.19232H25.4999C25.776 3.19232 25.9999 2.96846 25.9999 2.69232C25.9999 2.41618 25.776 2.19232 25.4999 2.19232H8.88452Z" stroke="white" stroke-linecap="round" stroke-linejoin="round"/>
<path d="M2.42308 12.4231C3.20902 12.4231 3.84615 11.7859 3.84615 11C3.84615 10.214 3.20902 9.5769 2.42308 9.5769C1.63713 9.5769 1 10.214 1 11C1 11.7859 1.63713 12.4231 2.42308 12.4231Z" fill="#D9D9D9" stroke="white" stroke-linecap="round" stroke-linejoin="round"/>
<path d="M8.88452 10.5C8.60838 10.5 8.38452 10.7239 8.38452 11C8.38452 11.2761 8.60838 11.5 8.88452 11.5H25.4999C25.776 11.5 25.9999 11.2761 25.9999 11C25.9999 10.7239 25.776 10.5 25.4999 10.5H8.88452Z" stroke="white" stroke-linecap="round" stroke-linejoin="round"/>
<path d="M2.42308 20.7307C3.20904 20.7307 3.84615 20.0935 3.84615 19.3077C3.84615 18.5218 3.20904 17.8846 2.42308 17.8846C1.63711 17.8846 1 18.5218 1 19.3077C1 20.0935 1.63711 20.7307 2.42308 20.7307Z" fill="#D9D9D9" stroke="white" stroke-linecap="round" stroke-linejoin="round"/>
<path d="M8.88452 18.8077C8.60838 18.8077 8.38452 19.0315 8.38452 19.3077C8.38452 19.5838 8.60838 19.8077 8.88452 19.8077H25.4999C25.776 19.8077 25.9999 19.5838 25.9999 19.3077C25.9999 19.0315 25.776 18.8077 25.4999 18.8077H8.88452Z" stroke="white" stroke-linecap="round" stroke-linejoin="round"/>
</svg>
