<svg width="24" height="24" viewBox="0 0 24 24" fill="none" xmlns="http://www.w3.org/2000/svg">
<g clip-path="url(#clip0_26_3021)">
<path d="M21.1192 11.2039C22.2138 13.8522 23.1728 17.2819 23.1428 19.1631C23.102 21.7008 21.5521 23.1426 19.9602 23.1426C18.5161 22.4633 16.7747 19.1631 15.1848 19.1631H8.81503C7.2252 19.1631 5.48381 22.4633 4.03956 23.1426C2.44772 23.1426 0.897804 21.7008 0.857138 19.1631C0.826988 17.2819 1.78604 13.8522 2.88062 11.2039" stroke="white" stroke-width="1.5" stroke-linecap="round" stroke-linejoin="round"/>
<path d="M5.63184 2.44893V7.22442C5.63184 8.10356 6.34452 8.81624 7.22365 8.81624H16.7746C17.6538 8.81624 18.3664 8.10356 18.3664 7.22442V2.44893L15.1827 4.04077L11.9991 0.857117L8.81544 4.04077L5.63184 2.44893Z" stroke="white" stroke-width="1.5" stroke-linecap="round" stroke-linejoin="round"/>
<path d="M7.71429 15.8571C8.66106 15.8571 9.42857 15.0896 9.42857 14.1428C9.42857 13.196 8.66106 12.4285 7.71429 12.4285C6.76751 12.4285 6 13.196 6 14.1428C6 15.0896 6.76751 15.8571 7.71429 15.8571Z" stroke="white" stroke-width="1.5" stroke-linecap="round" stroke-linejoin="round"/>
<path d="M16.2856 15.8571C17.2323 15.8571 17.9999 15.0896 17.9999 14.1428C17.9999 13.196 17.2323 12.4285 16.2856 12.4285C15.3388 12.4285 14.5713 13.196 14.5713 14.1428C14.5713 15.0896 15.3388 15.8571 16.2856 15.8571Z" stroke="white" stroke-width="1.5" stroke-linecap="round" stroke-linejoin="round"/>
</g>
<defs>
<clipPath id="clip0_26_3021">
<rect width="24" height="24" fill="white"/>
</clipPath>
</defs>
</svg>
