<svg width="24" height="25" viewBox="0 0 24 25" fill="none" xmlns="http://www.w3.org/2000/svg">
<path d="M8.53428 5.41748C8.32648 5.41291 8.12242 5.47315 7.95046 5.58991C7.77851 5.70668 7.6472 5.87421 7.57481 6.06905C7.50242 6.26389 7.49253 6.47641 7.54652 6.67713C7.60052 6.87785 7.71571 7.05668 7.87608 7.1889L13.9952 12.4311L7.87608 17.6714C7.76514 17.753 7.67223 17.8565 7.60318 17.9756C7.53412 18.0947 7.49039 18.2268 7.47474 18.3636C7.45909 18.5004 7.47186 18.6389 7.51223 18.7705C7.5526 18.9021 7.61972 19.024 7.70938 19.1285C7.79903 19.233 7.9093 19.3178 8.03326 19.3777C8.15723 19.4376 8.29223 19.4712 8.4298 19.4765C8.56738 19.4818 8.70457 19.4587 8.83278 19.4086C8.961 19.3584 9.07747 19.2823 9.17491 19.185L16.1808 13.1908C16.2908 13.097 16.3791 12.9804 16.4397 12.8491C16.5003 12.7177 16.5317 12.5748 16.5317 12.4302C16.5317 12.2855 16.5003 12.1426 16.4397 12.0112C16.3791 11.8799 16.2908 11.7632 16.1808 11.6694L9.17491 5.66939C8.99793 5.51219 8.77093 5.42282 8.53428 5.41725V5.41748Z" fill="white"/>
</svg>
