<svg width="25" height="24" viewBox="0 0 25 24" fill="none" xmlns="http://www.w3.org/2000/svg">
<g clip-path="url(#clip0_26_3048)">
<path d="M20.9853 15.5147C19.6783 14.2077 18.1226 13.2402 16.4253 12.6545C18.2432 11.4024 19.4375 9.30694 19.4375 6.9375C19.4375 3.11217 16.3253 0 12.5 0C8.67467 0 5.5625 3.11217 5.5625 6.9375C5.5625 9.30694 6.75683 11.4024 8.57478 12.6545C6.87744 13.2402 5.32175 14.2077 4.01473 15.5147C1.74823 17.7812 0.5 20.7947 0.5 24H2.375C2.375 18.417 6.91705 13.875 12.5 13.875C18.083 13.875 22.625 18.417 22.625 24H24.5C24.5 20.7947 23.2518 17.7812 20.9853 15.5147ZM12.5 12C9.70855 12 7.4375 9.729 7.4375 6.9375C7.4375 4.146 9.70855 1.875 12.5 1.875C15.2915 1.875 17.5625 4.146 17.5625 6.9375C17.5625 9.729 15.2915 12 12.5 12Z" fill="white"/>
</g>
<defs>
<clipPath id="clip0_26_3048">
<rect width="24" height="24" fill="white" transform="translate(0.5)"/>
</clipPath>
</defs>
</svg>
